<svg id="color" enable-background="new 0 0 24 24" height="512" viewBox="0 0 24 24" width="512" xmlns="http://www.w3.org/2000/svg"><path d="m21.25 0h-18.5c-1.517 0-2.75 1.233-2.75 2.75v18.5c0 1.517 1.233 2.75 2.75 2.75h18.5c1.517 0 2.75-1.233 2.75-2.75v-18.5c0-1.517-1.233-2.75-2.75-2.75z" fill="#2196f3"/><path d="m20.001 7.41-9.228 10.5c-.182.207-.441.33-.718.339-.011.001-.022.001-.033.001-.264 0-.518-.104-.706-.291l-5.272-5.25c-.391-.39-.393-1.023-.003-1.415.39-.389 1.023-.393 1.415-.003l4.518 4.499 8.525-9.7c.364-.414.995-.455 1.411-.091.415.364.456.996.091 1.411z" fill="#fafafa"/></svg>